HIERARCHY
ROOT hip
{
	OFFSET 0.000000 0.000000 0.000000 
	CHANNELS 6 Xposition Yposition Zposition Xrotation Zrotation Yrotation
	JOINT abdomen
	{
		OFFSET 0.000000 3.402643 0.000000 
		CHANNELS 3 Xrotation Zrotation Yrotation
		JOINT chest
		{
			OFFSET 0.000000 8.438565 -0.680529 
			CHANNELS 3 Xrotation Zrotation Yrotation
			JOINT neck
			{
				OFFSET 0.000000 10.207942 -0.272212 
				CHANNELS 3 Xrotation Zrotation Yrotation
				JOINT head
				{
					OFFSET 0.000000 3.130431 0.000000 
					CHANNELS 3 Xrotation Zrotation Yrotation
					End Site
					{
						OFFSET 0.000000 3.130435 0.000000 
					}
				}
			}
			JOINT lCollar
			{
				OFFSET 3.470700 6.669187 -0.816635 
				CHANNELS 3 Yrotation Zrotation Xrotation
				JOINT lShldr
				{
					OFFSET 3.198488 0.000000 0.000000 
					CHANNELS 3 Zrotation Yrotation Xrotation
					JOINT lForeArm
					{
						OFFSET 10.139888 0.000000 0.000000 
						CHANNELS 3 Yrotation Zrotation Xrotation
						JOINT lHand
						{
							OFFSET 8.370511 0.000000 0.000000 
							CHANNELS 3 Zrotation Yrotation Xrotation
							End Site
							{
								OFFSET 4.083176 0.000000 0.000000 
							}
						}
					}
				}
			}
			JOINT rCollar
			{
				OFFSET -3.470700 6.669187 -0.816635 
				CHANNELS 3 Yrotation Zrotation Xrotation
				JOINT rShldr
				{
					OFFSET -3.198488 0.000000 0.000000 
					CHANNELS 3 Zrotation Yrotation Xrotation
					JOINT rForeArm
					{
						OFFSET -10.139888 0.000000 0.000000 
						CHANNELS 3 Yrotation Zrotation Xrotation
						JOINT rHand
						{
							OFFSET -8.370511 0.000000 0.000000 
							CHANNELS 3 Zrotation Yrotation Xrotation
							End Site
							{
								OFFSET -4.083176 0.000000 0.000000 
							}
						}
					}
				}
			}
		}
	}
	JOINT lThigh
	{
		OFFSET 5.308129 -1.633274 1.361059 
		CHANNELS 3 Xrotation Zrotation Yrotation
		JOINT lShin
		{
			OFFSET -2.041588 -20.007561 0.000000 
			CHANNELS 3 Xrotation Zrotation Yrotation
			JOINT lFoot
			{
				OFFSET 0.000000 -19.190928 -1.224953 
				CHANNELS 3 Xrotation Yrotation Zrotation
				End Site
				{
					OFFSET 0.000000 -2.449906 4.627600 
				}
			}
		}
	}
	JOINT rThigh
	{
		OFFSET -5.308129 -1.633274 1.361059 
		CHANNELS 3 Xrotation Zrotation Yrotation
		JOINT rShin
		{
			OFFSET 2.041588 -20.007561 0.000000 
			CHANNELS 3 Xrotation Zrotation Yrotation
			JOINT rFoot
			{
				OFFSET 0.000000 -19.190928 -1.224953 
				CHANNELS 3 Xrotation Yrotation Zrotation
				End Site
				{
					OFFSET 0.000000 -2.449906 4.627600 
				}
			}
		}
	}
}
MOTION
Frames: 9
Frame Time: 0.033333
61.423409 52.137402 -58.420078 -4.765625 -4.394531 144.315659 24.545240 -20.568176 2.575566 -16.621094 7.773438 4.698587 51.063168 8.107644 2.471410 -30.000000 23.886717 -45.214848 2.000000 -2.000000 0.000000 -76.953125 7.148438 -7.744139 -46.539890 -2.032722 -1.862920 -7.507142 60.106674 -7.327578 -2.000000 2.000000 0.000000 66.357422 18.828125 -50.807392 70.741127 0.377807 -2.673777 62.156765 -57.600876 -55.508686 -11.776784 4.942687 -30.583548 17.718729 -5.146690 -2.026068 -9.971837 -3.525670 -11.062748 7.438940 -6.884758 -43.223946 11.422404 4.582805 0.936233 -7.566566 -6.159001 11.107038 
61.689209 52.205658 -58.586712 -4.238281 -4.052734 143.906250 24.077276 -20.434748 2.302259 -16.240234 8.271484 4.853516 51.063168 8.107644 2.471410 -27.636719 23.876951 -44.761677 2.000000 -2.000000 0.000000 -77.695313 7.265625 -7.705078 -46.187771 -2.051081 -1.842289 -7.027556 60.287739 -7.394249 -2.000000 2.000000 0.000000 65.742188 20.214844 -52.115768 69.507050 0.584931 -2.534642 64.640526 -55.834702 -56.501793 -10.353456 5.205432 -29.897446 17.726822 -5.095684 -2.525813 -10.423131 -3.366874 -11.383974 8.515168 -6.923969 -43.093006 11.423682 4.606902 0.928453 -7.204121 -5.813152 10.711862 
61.974922 52.215721 -58.702194 -3.525390 -3.515625 142.753296 23.376482 -20.136925 2.152495 -16.035156 8.769531 5.009765 51.063168 8.107644 2.471410 -25.260643 23.806925 -43.944485 2.000000 -2.000000 0.000000 -77.978516 7.636719 -7.879560 -46.187790 -2.041332 -1.842859 -6.273486 60.339771 -6.653869 -2.000000 2.000000 0.000000 66.611328 23.730467 -53.882786 67.586960 0.651351 -2.667686 65.718361 -56.386021 -57.965717 -8.931238 5.497713 -29.381237 17.579336 -5.078772 -2.501542 -10.513284 -2.810040 -11.627332 9.585920 -6.815965 -42.790253 11.240705 4.551016 1.075774 -6.609426 -4.940773 10.520755 
62.259468 52.216995 -58.758221 -2.832031 -3.173828 140.927185 22.730433 -20.001242 1.900871 -15.839844 9.111328 4.941407 51.063168 8.107644 2.471410 -23.134768 23.603516 -43.320313 2.000000 -2.000000 0.000000 -78.017578 7.851562 -7.664682 -46.364094 -2.042471 -1.862350 -5.382022 60.030060 -5.689651 -2.000000 2.000000 0.000000 68.378906 29.052736 -56.333145 64.930794 0.514861 -2.675604 66.824379 -58.039341 -59.677193 -7.776798 5.799409 -28.140940 17.752274 -5.078179 -2.515300 -10.749925 -2.241796 -11.830262 10.176315 -7.147108 -41.295292 11.246410 4.563129 1.076739 -6.910076 -4.546359 10.298454 
62.553043 52.210617 -58.747902 -2.470703 -3.007834 138.622742 22.050648 -19.709007 1.738479 -15.634766 9.443359 5.058594 51.063168 8.107644 2.471410 -21.201176 23.388672 -42.568363 2.000000 -2.000000 0.000000 -77.656250 7.978516 -6.855469 -46.356716 -1.763734 -1.947105 -4.975150 59.861172 -5.617791 -2.000000 2.000000 0.000000 70.429688 34.013676 -58.378902 62.657330 0.870358 -2.733356 67.692230 -60.132690 -61.198097 -6.787618 6.119701 -26.918636 17.391140 -5.156230 -1.970153 -10.397842 -1.686765 -12.533058 10.465935 -7.509930 -39.562725 11.261190 4.619096 0.897667 -7.232819 -4.217457 9.887777 
62.922409 52.177410 -58.770359 -2.314453 -3.359375 136.162109 21.027004 -19.334644 1.436618 -15.996095 9.462891 4.833984 51.063168 8.107644 2.471410 -19.072268 22.597654 -41.298832 2.000000 -2.000000 0.000000 -77.226563 8.457031 -6.503907 -46.186954 -1.931814 -1.810150 -3.793036 59.844177 -5.382394 -2.000000 2.000000 0.000000 71.425781 36.562496 -57.783203 61.610287 0.807338 -2.658637 67.019989 -62.238083 -61.712772 -5.845340 6.296657 -24.102325 17.752890 -5.078209 -2.495848 -11.036812 -1.683338 -12.071632 10.198404 -7.957531 -36.773243 11.779831 4.610881 0.947493 -7.342743 -4.018632 10.170191 
63.406700 52.228279 -58.881104 -2.470703 -3.867187 133.563782 19.506403 -18.474686 0.991223 -16.728516 9.160157 4.267578 51.063168 8.107644 2.471410 -16.630861 21.035156 -39.033207 2.000000 -2.000000 0.000000 -76.982422 9.589845 -6.072590 -45.836937 -2.199594 -1.872717 -3.283042 59.948978 -6.181401 -2.000000 2.000000 0.000000 71.162109 34.638672 -53.300781 62.832596 0.830230 -2.716120 63.619034 -63.786625 -59.266556 -5.192753 6.541348 -20.733332 17.576857 -5.087690 -2.501893 -11.590251 -1.788719 -12.133511 9.367885 -8.620072 -33.477180 12.127897 4.533112 1.142921 -7.710628 -4.387483 10.720114 
63.926266 52.202831 -58.936062 -2.470703 -4.765660 130.438858 18.199894 -17.515108 0.363248 -17.812502 8.857423 3.505860 51.063168 8.107644 2.471410 -14.707035 18.681641 -36.445316 2.000000 -2.000000 0.000000 -77.070313 11.386719 -5.623072 -45.652771 -1.781524 -1.916728 -2.934669 59.849705 -7.026947 -2.000000 2.000000 0.000000 66.855469 29.482422 -43.706131 67.054710 0.700523 -2.840961 56.511765 -64.458397 -53.062592 -4.456032 6.936599 -17.035454 17.379654 -5.067628 -2.463419 -11.792036 -2.086028 -12.174384 8.342155 -9.282772 -30.108236 12.824059 4.530898 1.226865 -7.651779 -4.319488 11.212370 
64.324341 52.178684 -58.835972 -2.656250 -5.458984 127.147507 17.152071 -16.541906 -0.693804 -18.730471 8.212892 2.705079 51.063168 8.107644 2.471410 -13.876954 15.937498 -33.662113 2.000000 -2.000000 0.000000 -77.607422 13.515624 -5.957031 -46.010872 -1.950743 -1.799264 -2.524769 59.174122 -7.969711 -2.000000 2.000000 0.000000 58.095703 24.277346 -30.122938 73.709709 0.192841 -3.026777 45.988785 -64.182068 -43.640560 -4.079214 7.330602 -13.678087 16.844107 -5.145922 -1.893541 -11.784752 -2.309482 -12.512407 6.773316 -10.017016 -25.940147 13.529661 4.603146 1.084569 -7.890187 -4.547207 11.065370 
